<?xml version="1.0" encoding="utf-8"?>
<!-- Generator: Adobe Illustrator 25.0.0, SVG Export Plug-In . SVG Version: 6.00 Build 0)  -->
<svg version="1.1" id="Layer_1" xmlns="http://www.w3.org/2000/svg" xmlns:xlink="http://www.w3.org/1999/xlink" x="0px" y="0px"
	 viewBox="0 0 100 100" style="enable-background:new 0 0 100 100;" xml:space="preserve">
<style type="text/css">
	.st0{fill:#161F32;}
	.st1{fill:#F05974;}
</style>
<g>
	<g>
		<g>
			<path class="st0" d="M21.14,46.02l58.75-33.08l0,0V79.1L21.14,46.02z M27.44,46.02l49.37,27.8V18.22L27.44,46.02L27.44,46.02z"/>
		</g>
		<g>
			<path class="st0" d="M79.9,46.02L21.14,79.1l0,0V12.94L79.9,46.02z M73.6,46.02l-49.37-27.8v55.59L73.6,46.02L73.6,46.02z"/>
		</g>
	</g>
	<polygon class="st1" points="50.52,100 9.07,26.37 91.97,26.37 	"/>
	<g>
		<path class="st0" d="M50.52,0l45.05,80.02l0,0H5.47L50.52,0z M50.52,8.58L12.66,75.81h75.71L50.52,8.58L50.52,8.58z"/>
	</g>
</g>
</svg>
