<?xml version="1.0" encoding="utf-8"?>
<!-- Generator: Adobe Illustrator 25.0.0, SVG Export Plug-In . SVG Version: 6.00 Build 0)  -->
<svg version="1.1" id="Layer_1" xmlns="http://www.w3.org/2000/svg" xmlns:xlink="http://www.w3.org/1999/xlink" x="0px" y="0px"
	 viewBox="0 0 100 100" style="enable-background:new 0 0 100 100;" xml:space="preserve">
<style type="text/css">
	.st0{fill-rule:evenodd;clip-rule:evenodd;fill:#F2748C;}
</style>
<path class="st0" d="M99.82,95.11L76.02,71.32c6.12-7.42,9.8-16.93,9.8-27.3c0-23.71-19.21-42.91-42.92-42.92
	C19.21,1.11,0,20.32,0,44.02c0,23.7,19.21,42.9,42.91,42.9c11.1,0,21.18-4.24,28.8-11.16L95.43,99.5L99.82,95.11z M42.91,80.73
	C22.64,80.69,6.25,64.29,6.2,44.02C6.25,23.75,22.64,7.35,42.91,7.31c20.28,0.04,36.69,16.44,36.7,36.71
	C79.59,64.29,63.19,80.69,42.91,80.73z"/>
</svg>
