<?xml version="1.0" encoding="utf-8"?>
<!-- Generator: Adobe Illustrator 25.0.0, SVG Export Plug-In . SVG Version: 6.00 Build 0)  -->
<svg version="1.1" id="Layer_1" xmlns="http://www.w3.org/2000/svg" xmlns:xlink="http://www.w3.org/1999/xlink" x="0px" y="0px"
	 viewBox="0 0 100 100" style="enable-background:new 0 0 100 100;" xml:space="preserve">
<style type="text/css">
	.st0{fill:#9E9D9E;}
</style>
<path class="st0" d="M100.02,18.77c-3.67,1.63-7.63,2.74-11.78,3.22c4.23-2.53,7.49-6.55,9.02-11.35c-3.96,2.36-8.36,4.07-13.03,5
	c-3.74-4-9.08-6.5-14.98-6.5c-11.33,0-20.52,9.19-20.52,20.53c0,1.6,0.19,3.16,0.54,4.67c-17.06-0.84-32.17-9.02-42.3-21.45
	c-1.76,3.04-2.78,6.57-2.78,10.34c0,7.11,3.63,13.39,9.13,17.08c-3.36-0.1-6.53-1.04-9.3-2.57c0,0.08,0,0.18,0,0.26
	c0,9.94,7.08,18.23,16.47,20.12c-1.73,0.47-3.54,0.72-5.41,0.72c-1.32,0-2.6-0.13-3.85-0.38c2.6,8.16,10.18,14.09,19.16,14.27
	c-7.02,5.5-15.87,8.77-25.48,8.77c-1.67,0-3.29-0.1-4.9-0.28c9.09,5.81,19.87,9.21,31.46,9.21c37.75,0,58.39-31.26,58.39-58.38
	c0-0.88-0.02-1.77-0.07-2.65C93.79,26.5,97.27,22.89,100.02,18.77z"/>
</svg>
