<?xml version="1.0" encoding="utf-8"?>
<!-- Generator: Adobe Illustrator 25.0.0, SVG Export Plug-In . SVG Version: 6.00 Build 0)  -->
<svg version="1.1" id="Layer_1" xmlns="http://www.w3.org/2000/svg" xmlns:xlink="http://www.w3.org/1999/xlink" x="0px" y="0px"
	 viewBox="0 0 100 100" style="enable-background:new 0 0 100 100;" xml:space="preserve">
<style type="text/css">
	.st0{fill:#9E9D9E;}
</style>
<path class="st0" d="M81.63,48.01H18.25C8.17,48.01,0,56.18,0,66.25v14.68c0,10.06,8.17,18.23,18.25,18.23h63.38
	c10.07,0,18.23-8.17,18.23-18.23V66.25C99.86,56.18,91.7,48.01,81.63,48.01z M31.56,59.43h-5.89v29.27h-5.69V59.43H14.1v-4.99h17.47
	V59.43z M48.21,88.71h-5.05v-2.76c-0.93,1.01-1.9,1.8-2.91,2.33c-1.02,0.54-1.99,0.8-2.95,0.8c-1.16,0-2.03-0.37-2.63-1.13
	c-0.6-0.75-0.9-1.87-0.9-3.38V63.42h5.05v19.39c0,0.61,0.12,1.04,0.32,1.29c0.22,0.28,0.56,0.42,1.03,0.42
	c0.37,0,0.83-0.17,1.41-0.53c0.57-0.36,1.1-0.82,1.57-1.37v-19.2h5.05V88.71z M66.54,83.48c0,1.79-0.39,3.16-1.19,4.12
	c-0.78,0.96-1.93,1.42-3.42,1.42c-1,0-1.88-0.17-2.65-0.54c-0.78-0.37-1.51-0.95-2.16-1.72v1.95H52V54.44h5.12v11.03
	c0.67-0.76,1.39-1.36,2.16-1.75c0.77-0.4,1.54-0.61,2.33-0.61c1.6,0,2.82,0.53,3.67,1.62c0.83,1.07,1.25,2.65,1.25,4.73V83.48z
	 M84.05,76.68h-9.65v4.77c0,1.33,0.14,2.25,0.48,2.76c0.34,0.51,0.92,0.78,1.72,0.78c0.84,0,1.42-0.22,1.75-0.67
	c0.34-0.44,0.51-1.38,0.51-2.87v-1.16h5.19v1.3c0,2.57-0.63,4.53-1.9,5.86c-1.25,1.3-3.15,1.95-5.67,1.95
	c-2.27,0-4.05-0.69-5.34-2.09c-1.29-1.35-1.95-3.28-1.95-5.71V70.23c0-2.17,0.71-3.97,2.14-5.36c1.44-1.38,3.26-2.07,5.52-2.07
	c2.32,0,4.1,0.63,5.34,1.92c1.24,1.28,1.86,3.09,1.86,5.5V76.68z"/>
<path class="st0" d="M76.64,67.23c-0.79,0-1.38,0.22-1.72,0.7c-0.36,0.43-0.51,1.2-0.51,2.26v2.55h4.46v-2.55
	c0-1.07-0.18-1.83-0.53-2.26C77.99,67.45,77.42,67.23,76.64,67.23z"/>
<path class="st0" d="M59.23,67.13c-0.36,0-0.73,0.08-1.07,0.24c-0.36,0.16-0.71,0.45-1.04,0.78V83.9c0.4,0.41,0.8,0.72,1.18,0.89
	c0.4,0.19,0.79,0.26,1.23,0.26c0.61,0,1.06-0.16,1.36-0.53c0.29-0.37,0.43-0.94,0.43-1.74V69.74c0-0.87-0.16-1.5-0.53-1.95
	C60.43,67.36,59.91,67.13,59.23,67.13z"/>
<path class="st0" d="M26.55,39.22h6.4V23.57l7.46-22.09h-6.52l-3.96,15.1h-0.41l-4.15-15.1h-6.45l7.63,22.8V39.22z"/>
<path class="st0" d="M49.07,39.93c2.59,0,4.61-0.67,6.11-2.03c1.46-1.37,2.2-3.23,2.2-5.61V17.92c0-2.12-0.76-3.87-2.24-5.21
	c-1.51-1.36-3.44-2.03-5.8-2.03c-2.58,0-4.64,0.64-6.17,1.92c-1.53,1.28-2.29,2.99-2.29,5.15v14.43c0,2.38,0.75,4.24,2.24,5.65
	C44.59,39.22,46.59,39.93,49.07,39.93z M46.72,17.54c0-0.59,0.22-1.09,0.64-1.47c0.45-0.38,1.01-0.55,1.7-0.55
	c0.75,0,1.36,0.17,1.82,0.55c0.46,0.38,0.7,0.88,0.7,1.47v15.18c0,0.74-0.22,1.33-0.68,1.76c-0.46,0.42-1.07,0.62-1.84,0.62
	c-0.76,0-1.34-0.2-1.74-0.62c-0.4-0.42-0.61-1-0.61-1.76V17.54z"/>
<path class="st0" d="M65.97,39.64c1.06,0,2.16-0.3,3.29-0.88c1.14-0.61,2.24-1.47,3.26-2.61v3.08h5.7V11.39h-5.7v21.14
	c-0.53,0.61-1.11,1.11-1.74,1.49c-0.64,0.4-1.18,0.59-1.59,0.59c-0.54,0-0.93-0.15-1.16-0.45c-0.24-0.29-0.37-0.78-0.37-1.43V11.39
	h-5.67v23.26c0,1.67,0.33,2.9,0.99,3.73C63.66,39.2,64.65,39.64,65.97,39.64z"/>
</svg>
