<svg version="1.1" id="Layer_1" xmlns="http://www.w3.org/2000/svg" x="0" y="0" viewBox="0 0 100 100" xml:space="preserve"><style>.st0{fill:#9e9d9e}</style><path class="st0" d="M81.63 48.01H18.25C8.17 48.01 0 56.18 0 66.25v14.68c0 10.06 8.17 18.23 18.25 18.23h63.38c10.07 0 18.23-8.17 18.23-18.23V66.25c0-10.07-8.16-18.24-18.23-18.24zM31.56 59.43h-5.89V88.7h-5.69V59.43H14.1v-4.99h17.47v4.99zm16.65 29.28h-5.05v-2.76c-.93 1.01-1.9 1.8-2.91 2.33-1.02.54-1.99.8-2.95.8-1.16 0-2.03-.37-2.63-1.13-.6-.75-.9-1.87-.9-3.38V63.42h5.05v19.39c0 .61.12 1.04.32 1.29.22.28.56.42 1.03.42.37 0 .83-.17 1.41-.53.57-.36 1.1-.82 1.57-1.37v-19.2h5.05v25.29zm18.33-5.23c0 1.79-.39 3.16-1.19 4.12-.78.96-1.93 1.42-3.42 1.42-1 0-1.88-.17-2.65-.54-.78-.37-1.51-.95-2.16-1.72v1.95H52V54.44h5.12v11.03c.67-.76 1.39-1.36 2.16-1.75.77-.4 1.54-.61 2.33-.61 1.6 0 2.82.53 3.67 1.62.83 1.07 1.25 2.65 1.25 4.73v14.02zm17.51-6.8H74.4v4.77c0 1.33.14 2.25.48 2.76.34.51.92.78 1.72.78.84 0 1.42-.22 1.75-.67.34-.44.51-1.38.51-2.87v-1.16h5.19v1.3c0 2.57-.63 4.53-1.9 5.86-1.25 1.3-3.15 1.95-5.67 1.95-2.27 0-4.05-.69-5.34-2.09-1.29-1.35-1.95-3.28-1.95-5.71V70.23c0-2.17.71-3.97 2.14-5.36 1.44-1.38 3.26-2.07 5.52-2.07 2.32 0 4.1.63 5.34 1.92 1.24 1.28 1.86 3.09 1.86 5.5v6.46z"/><path class="st0" d="M76.64 67.23c-.79 0-1.38.22-1.72.7-.36.43-.51 1.2-.51 2.26v2.55h4.46v-2.55c0-1.07-.18-1.83-.53-2.26-.35-.48-.92-.7-1.7-.7zm-17.41-.1c-.36 0-.73.08-1.07.24-.36.16-.71.45-1.04.78V83.9c.4.41.8.72 1.18.89.4.19.79.26 1.23.26.61 0 1.06-.16 1.36-.53.29-.37.43-.94.43-1.74V69.74c0-.87-.16-1.5-.53-1.95-.36-.43-.88-.66-1.56-.66zM26.55 39.22h6.4V23.57l7.46-22.09h-6.52l-3.96 15.1h-.41l-4.15-15.1h-6.45l7.63 22.8v14.94zm22.52.71c2.59 0 4.61-.67 6.11-2.03 1.46-1.37 2.2-3.23 2.2-5.61V17.92c0-2.12-.76-3.87-2.24-5.21-1.51-1.36-3.44-2.03-5.8-2.03-2.58 0-4.64.64-6.17 1.92-1.53 1.28-2.29 2.99-2.29 5.15v14.43c0 2.38.75 4.24 2.24 5.65 1.47 1.39 3.47 2.1 5.95 2.1zm-2.35-22.39c0-.59.22-1.09.64-1.47.45-.38 1.01-.55 1.7-.55.75 0 1.36.17 1.82.55.46.38.7.88.7 1.47v15.18c0 .74-.22 1.33-.68 1.76-.46.42-1.07.62-1.84.62-.76 0-1.34-.2-1.74-.62-.4-.42-.61-1-.61-1.76V17.54zm19.25 22.1c1.06 0 2.16-.3 3.29-.88 1.14-.61 2.24-1.47 3.26-2.61v3.08h5.7V11.39h-5.7v21.14c-.53.61-1.11 1.11-1.74 1.49-.64.4-1.18.59-1.59.59-.54 0-.93-.15-1.16-.45-.24-.29-.37-.78-.37-1.43V11.39h-5.67v23.26c0 1.67.33 2.9.99 3.73.68.82 1.67 1.26 2.99 1.26z"/></svg>