<svg xmlns="http://www.w3.org/2000/svg" viewBox="0 0 100 100"><path d="M100.02 18.77a40.453 40.453 0 01-11.78 3.22c4.23-2.53 7.49-6.55 9.02-11.35a41.144 41.144 0 01-13.03 5c-3.74-4-9.08-6.5-14.98-6.5-11.33 0-20.52 9.19-20.52 20.53 0 1.6.19 3.16.54 4.67-17.06-.84-32.17-9.02-42.3-21.45a20.577 20.577 0 00-2.78 10.34c0 7.11 3.63 13.39 9.13 17.08-3.36-.1-6.53-1.04-9.3-2.57V38c0 9.94 7.08 18.23 16.47 20.12-1.73.47-3.54.72-5.41.72-1.32 0-2.6-.13-3.85-.38 2.6 8.16 10.18 14.09 19.16 14.27-7.02 5.5-15.87 8.77-25.48 8.77-1.67 0-3.29-.1-4.9-.28 9.09 5.81 19.87 9.21 31.46 9.21 37.75 0 58.39-31.26 58.39-58.38 0-.88-.02-1.77-.07-2.65 4-2.9 7.48-6.51 10.23-10.63z" fill="#9e9d9e"/></svg>