<svg version="1.1" id="Layer_1" xmlns="http://www.w3.org/2000/svg" x="0" y="0" viewBox="0 0 100 100" xml:space="preserve"><style>.st0{fill:#9e9d9e}</style><path class="st0" d="M97.81 41.36H82.76V26.32c0-1.15-.94-2.08-2.09-2.08h-4.29c-1.15 0-2.08.93-2.08 2.08v15.04H59.27c-1.15 0-2.1.95-2.1 2.08v4.29c0 1.15.95 2.09 2.1 2.09h15.05v15.06c0 1.14.93 2.06 2.08 2.06h4.29c1.15 0 2.09-.92 2.09-2.06V49.81h15.05c1.14 0 2.08-.93 2.08-2.09v-4.29c-.02-1.13-.96-2.07-2.1-2.07z"/><path class="st0" d="M47.24 54.55c-3.16-2.24-6.05-5.53-6.1-6.54 0-1.84.16-2.72 4.29-5.92 5.33-4.2 8.27-9.67 8.27-15.48 0-5.26-1.61-9.93-4.35-13.21h2.13c.45 0 .87-.14 1.23-.39l5.93-4.31c.73-.51 1.03-1.46.76-2.31-.29-.87-1.07-1.45-1.98-1.45H30.93c-2.9 0-5.84.51-8.74 1.52C12.54 9.79 5.8 18 5.8 26.45c0 11.95 9.26 21.02 21.64 21.32-.25.95-.36 1.87-.36 2.78 0 1.85.47 3.59 1.43 5.27h-.34c-11.8 0-22.47 5.8-26.49 14.43C.62 72.48.09 74.75.09 76.97c0 2.2.55 4.29 1.65 6.26 2.53 4.55 8 8.07 15.38 9.93 3.8.97 7.89 1.45 12.15 1.45 3.81 0 7.46-.48 10.82-1.46 10.5-3.04 17.28-10.78 17.28-19.7 0-8.55-2.75-13.68-10.13-18.9zM13.8 74.15c0-6.23 7.89-11.7 16.91-11.7h.25c1.97.04 3.87.31 5.68.87.63.43 1.21.83 1.79 1.23 4.17 2.84 6.92 4.71 7.69 7.73.19.76.27 1.52.27 2.25 0 7.75-5.78 11.68-17.19 11.68-8.64.01-15.4-5.29-15.4-12.06zm8.19-58.83c1.41-1.61 3.25-2.46 5.34-2.46h.23c5.85.18 11.44 6.7 12.48 14.54.58 4.39-.41 8.52-2.61 11.05-1.41 1.61-3.24 2.46-5.39 2.46h-.1c-5.72-.18-11.44-6.95-12.48-14.8-.58-4.36.35-8.3 2.53-10.79z"/></svg>