<svg xmlns="http://www.w3.org/2000/svg" viewBox="0 0 100 100"><path d="M98.72 39.83a49.51 49.51 0 00-2.91-9.36c-1.25-2.97-2.8-5.82-4.6-8.48-1.77-2.65-3.83-5.11-6.08-7.37a49.354 49.354 0 00-7.38-6.09c-2.66-1.8-5.52-3.36-8.48-4.62a50.313 50.313 0 00-9.37-2.9 50.188 50.188 0 00-20.08.01 49.48 49.48 0 00-9.36 2.9 50.115 50.115 0 00-8.48 4.62 49.354 49.354 0 00-7.38 6.09A51.224 51.224 0 008.52 22c-1.8 2.66-3.35 5.51-4.59 8.48a49.767 49.767 0 00-2.92 9.36C.35 43.11 0 46.5 0 49.87c0 3.39.35 6.77 1.01 10.04.66 3.2 1.64 6.36 2.92 9.38 1.24 2.96 2.79 5.8 4.59 8.48 1.79 2.63 3.84 5.13 6.08 7.37 2.26 2.27 4.75 4.3 7.38 6.07 2.66 1.82 5.52 3.37 8.48 4.62 3.01 1.26 6.17 2.24 9.36 2.89 3.29.7 6.66 1.02 10.05 1.02 3.37 0 6.76-.33 10.04-1.02 3.2-.64 6.37-1.62 9.37-2.89 2.96-1.25 5.82-2.8 8.48-4.62a49.617 49.617 0 0013.46-13.44 49.702 49.702 0 008.52-27.9c-.01-3.37-.35-6.76-1.02-10.04zm-6.28 9.61c-.62-.12-15.03-3.22-29.66-1.38-.3-.73-.61-1.47-.92-2.2-.89-2.09-1.84-4.15-2.83-6.17 16.82-6.87 23.64-16.75 23.73-16.86a42.382 42.382 0 019.68 26.61zM78 17.92c-.11.16-6.17 9.39-22.25 15.41-7.28-13.38-15.27-24-15.92-24.84 3.23-.78 6.58-1.2 10.04-1.2 10.78 0 20.63 4.02 28.13 10.63zm-38.33-9.4v.01s-.06.01-.13.03c-.01 0 .08-.02.13-.04zm-7.97 2.84c.55.76 8.44 11.44 15.81 24.54-20.44 5.43-38.19 5.2-39.32 5.19 2.77-13.18 11.63-24.12 23.51-29.73zM7.28 49.87c0-.46.02-.9.03-1.34.76.01 21.81.5 43.73-6.06 1.22 2.39 2.4 4.81 3.46 7.24-.57.16-1.12.33-1.69.51-22.98 7.42-34.63 28.1-34.63 28.1l.01.03C11.41 70.79 7.28 60.81 7.28 49.87zm42.59 42.59a42.42 42.42 0 01-27.13-9.75c.55.46.95.74.95.74s8.16-17.8 33.42-26.62c.1-.03.19-.06.28-.08 6 15.57 8.47 28.61 9.09 32.34a42.272 42.272 0 01-16.61 3.37zm23.79-7.28c-.43-2.56-2.71-15.06-8.29-30.42 13.75-2.19 25.66 1.58 26.54 1.87-1.89 11.87-8.67 22.11-18.25 28.55z" fill-rule="evenodd" clip-rule="evenodd" fill="#9e9d9e"/></svg>