<?xml version="1.0" encoding="utf-8"?>
<!-- Generator: Adobe Illustrator 25.0.0, SVG Export Plug-In . SVG Version: 6.00 Build 0)  -->
<svg version="1.1" id="Layer_1" xmlns="http://www.w3.org/2000/svg" xmlns:xlink="http://www.w3.org/1999/xlink" x="0px" y="0px"
	 viewBox="0 0 100 100" style="enable-background:new 0 0 100 100;" xml:space="preserve">
<style type="text/css">
	.st0{fill-rule:evenodd;clip-rule:evenodd;fill:#9E9D9E;}
</style>
<path class="st0" d="M98.72,39.83c-0.66-3.2-1.63-6.35-2.91-9.36c-1.25-2.97-2.8-5.82-4.6-8.48c-1.77-2.65-3.83-5.11-6.08-7.37
	c-2.26-2.26-4.74-4.32-7.38-6.09c-2.66-1.8-5.52-3.36-8.48-4.62c-3.01-1.27-6.17-2.24-9.37-2.9C56.63,0.34,53.24,0,49.87,0
	c-3.38,0-6.76,0.34-10.05,1.02c-3.19,0.65-6.36,1.63-9.36,2.9c-2.96,1.25-5.81,2.82-8.48,4.62c-2.64,1.77-5.12,3.83-7.38,6.09
	c-2.24,2.26-4.29,4.72-6.08,7.37c-1.8,2.66-3.35,5.51-4.59,8.48c-1.28,3.01-2.26,6.17-2.92,9.36C0.35,43.11,0,46.5,0,49.87
	c0,3.39,0.35,6.77,1.01,10.04c0.66,3.2,1.64,6.36,2.92,9.38c1.24,2.96,2.79,5.8,4.59,8.48c1.79,2.63,3.84,5.13,6.08,7.37
	c2.26,2.27,4.75,4.3,7.38,6.07c2.66,1.82,5.52,3.37,8.48,4.62c3.01,1.26,6.17,2.24,9.36,2.89c3.29,0.7,6.66,1.02,10.05,1.02
	c3.37,0,6.76-0.33,10.04-1.02c3.2-0.64,6.37-1.62,9.37-2.89c2.96-1.25,5.82-2.8,8.48-4.62c2.63-1.77,5.11-3.8,7.38-6.07
	c2.25-2.24,4.3-4.73,6.08-7.37c1.81-2.67,3.35-5.52,4.6-8.48c1.28-3.01,2.25-6.18,2.91-9.38c0.67-3.27,1.01-6.65,1.01-10.04
	C99.73,46.5,99.39,43.11,98.72,39.83z M92.44,49.44c-0.62-0.12-15.03-3.22-29.66-1.38c-0.3-0.73-0.61-1.47-0.92-2.2
	c-0.89-2.09-1.84-4.15-2.83-6.17c16.82-6.87,23.64-16.75,23.73-16.86C88.73,30.07,92.34,39.35,92.44,49.44z M78,17.92
	c-0.11,0.16-6.17,9.39-22.25,15.41C48.47,19.95,40.48,9.33,39.83,8.49c3.23-0.78,6.58-1.2,10.04-1.2C60.65,7.29,70.5,11.31,78,17.92
	z M39.67,8.52v0.01c0,0-0.06,0.01-0.13,0.03C39.53,8.56,39.62,8.54,39.67,8.52z M31.7,11.36c0.55,0.76,8.44,11.44,15.81,24.54
	c-20.44,5.43-38.19,5.2-39.32,5.19C10.96,27.91,19.82,16.97,31.7,11.36z M7.28,49.87c0-0.46,0.02-0.9,0.03-1.34
	c0.76,0.01,21.81,0.5,43.73-6.06c1.22,2.39,2.4,4.81,3.46,7.24c-0.57,0.16-1.12,0.33-1.69,0.51c-22.98,7.42-34.63,28.1-34.63,28.1
	l0.01,0.03C11.41,70.79,7.28,60.81,7.28,49.87z M49.87,92.46c-10.31,0-19.77-3.66-27.13-9.75c0.55,0.46,0.95,0.74,0.95,0.74
	s8.16-17.8,33.42-26.62c0.1-0.03,0.19-0.06,0.28-0.08c6,15.57,8.47,28.61,9.09,32.34C61.39,91.26,55.77,92.46,49.87,92.46z
	 M73.66,85.18c-0.43-2.56-2.71-15.06-8.29-30.42c13.75-2.19,25.66,1.58,26.54,1.87C90.02,68.5,83.24,78.74,73.66,85.18z"/>
</svg>
