<?xml version="1.0" encoding="utf-8"?>
<!-- Generator: Adobe Illustrator 25.0.0, SVG Export Plug-In . SVG Version: 6.00 Build 0)  -->
<svg version="1.1" id="Layer_1" xmlns="http://www.w3.org/2000/svg" xmlns:xlink="http://www.w3.org/1999/xlink" x="0px" y="0px"
	 viewBox="0 0 100 100" style="enable-background:new 0 0 100 100;" xml:space="preserve">
<style type="text/css">
	.st0{fill:#9E9D9E;}
</style>
<path class="st0" d="M97.81,41.36H82.76V26.32c0-1.15-0.94-2.08-2.09-2.08h-4.29c-1.15,0-2.08,0.93-2.08,2.08v15.04H59.27
	c-1.15,0-2.1,0.95-2.1,2.08v4.29c0,1.15,0.95,2.09,2.1,2.09h15.05v15.06c0,1.14,0.93,2.06,2.08,2.06h4.29
	c1.15,0,2.09-0.92,2.09-2.06V49.81h15.05c1.14,0,2.08-0.93,2.08-2.09v-4.29C99.89,42.3,98.95,41.36,97.81,41.36z"/>
<path class="st0" d="M47.24,54.55c-3.16-2.24-6.05-5.53-6.1-6.54c0-1.84,0.16-2.72,4.29-5.92c5.33-4.2,8.27-9.67,8.27-15.48
	c0-5.26-1.61-9.93-4.35-13.21h2.13c0.45,0,0.87-0.14,1.23-0.39l5.93-4.31c0.73-0.51,1.03-1.46,0.76-2.31
	c-0.29-0.87-1.07-1.45-1.98-1.45H30.93c-2.9,0-5.84,0.51-8.74,1.52C12.54,9.79,5.8,18,5.8,26.45c0,11.95,9.26,21.02,21.64,21.32
	c-0.25,0.95-0.36,1.87-0.36,2.78c0,1.85,0.47,3.59,1.43,5.27c-0.11,0-0.21,0-0.34,0c-11.8,0-22.47,5.8-26.49,14.43
	c-1.06,2.23-1.59,4.5-1.59,6.72c0,2.2,0.55,4.29,1.65,6.26c2.53,4.55,8,8.07,15.38,9.93c3.8,0.97,7.89,1.45,12.15,1.45
	c3.81,0,7.46-0.48,10.82-1.46c10.5-3.04,17.28-10.78,17.28-19.7C57.37,64.9,54.62,59.77,47.24,54.55z M13.8,74.15
	c0-6.23,7.89-11.7,16.91-11.7h0.25c1.97,0.04,3.87,0.31,5.68,0.87c0.63,0.43,1.21,0.83,1.79,1.23c4.17,2.84,6.92,4.71,7.69,7.73
	c0.19,0.76,0.27,1.52,0.27,2.25c0,7.75-5.78,11.68-17.19,11.68C20.56,86.22,13.8,80.92,13.8,74.15z M21.99,15.32
	c1.41-1.61,3.25-2.46,5.34-2.46h0.23c5.85,0.18,11.44,6.7,12.48,14.54c0.58,4.39-0.41,8.52-2.61,11.05
	c-1.41,1.61-3.24,2.46-5.39,2.46l0,0h-0.1c-5.72-0.18-11.44-6.95-12.48-14.8C18.88,21.75,19.81,17.81,21.99,15.32z"/>
</svg>
